<svg xmlns="http://www.w3.org/2000/svg" width="19.97" height="20" viewBox="0 0 19.97 20">
  <defs>
    <style>
      .cls-1 {
        fill: #fff;
        fill-rule: evenodd;
      }
    </style>
  </defs>
  <path id="ins.svg" class="cls-1" d="M1527.01,38c1.35,0.024,2.69.037,4.03,0.075a6.541,6.541,0,0,1,3.31.857,4.957,4.957,0,0,1,2.4,3.518,18.207,18.207,0,0,1,.23,2.761c0.03,1.983.01,3.967-.01,5.95a9.49,9.49,0,0,1-.39,3.087,5.014,5.014,0,0,1-4.03,3.5,16.211,16.211,0,0,1-2.77.225c-1.98.03-3.95,0.018-5.93,0a9.747,9.747,0,0,1-3.09-.388,5.03,5.03,0,0,1-3.52-4.022,15.9,15.9,0,0,1-.22-2.761c-0.03-1.983-.02-3.967,0-5.95a9.773,9.773,0,0,1,.39-3.087,5.028,5.028,0,0,1,4.04-3.5,18.769,18.769,0,0,1,2.76-.227c0.93-.036,1.87-0.008,2.8-0.008V38Zm8.21,9.846h-0.04c0-.788.02-1.576,0-2.363-0.02-.757-0.05-1.516-0.13-2.269a3.349,3.349,0,0,0-2.84-3.168,15.887,15.887,0,0,0-2.68-.208c-1.69-.03-3.38-0.027-5.08,0a18.467,18.467,0,0,0-2.53.174,3.265,3.265,0,0,0-2.83,2.483,5.7,5.7,0,0,0-.21,1.421c-0.05,1.807-.07,3.616-0.07,5.424,0.01,1.151.03,2.3,0.13,3.45a3.355,3.355,0,0,0,2.89,3.195,16.609,16.609,0,0,0,2.66.192c1.67,0.028,3.35.021,5.02,0,0.76-.008,1.53-0.051,2.29-0.126a3.54,3.54,0,0,0,3.29-3.637C1535.17,50.89,1535.18,49.366,1535.22,47.843Zm-3.09.165a5.135,5.135,0,1,1-5.08-5.132A5.114,5.114,0,0,1,1532.13,48.008Zm-5.14,3.322A3.327,3.327,0,1,0,1523.67,48,3.355,3.355,0,0,0,1526.99,51.33Zm6.54-8.661a1.2,1.2,0,0,1-1.2,1.212,1.228,1.228,0,0,1-1.21-1.214,1.205,1.205,0,0,1,1.2-1.191A1.174,1.174,0,0,1,1533.53,42.668Z" transform="translate(-1517.03 -38)"/>
</svg>
